<svg width="170" height="48" viewBox="0 0 170 48" fill="none" xmlns="http://www.w3.org/2000/svg">
<rect width="170" height="48" rx="5" fill=""/>
<path d="M59.1727 29.9227H63.3848L61.8768 25.886C61.6693 25.3283 61.4653 24.7124 61.2641 24.0378C61.0826 24.6346 60.8846 25.2439 60.6706 25.8665L59.1727 29.9227ZM64.1045 31.839H58.4626L57.0816 35.6131H54.6011L60.126 21.5185H62.4703L68.1219 35.6131H65.5151L64.1045 31.839Z" fill="black"/>
<path d="M75.4391 33.0501C75.9288 32.392 76.1736 31.4304 76.1736 30.1659C76.1736 28.9924 75.9709 28.141 75.5657 27.6124C75.1602 27.084 74.6204 26.8197 73.946 26.8197C73.4791 26.8197 73.0479 26.9302 72.6524 27.1505C72.2568 27.371 71.8806 27.6659 71.5239 28.0356V33.658C71.7639 33.7746 72.0428 33.8671 72.3606 33.9349C72.6784 34.0034 72.993 34.0375 73.304 34.0375C74.2381 34.0375 74.9494 33.7081 75.4391 33.0501ZM69.1215 27.6855C69.1215 26.9074 69.0955 26.0512 69.0437 25.1176H71.3003C71.3845 25.5521 71.443 25.9964 71.4754 26.4501C72.4091 25.4322 73.4791 24.9229 74.6853 24.9229C75.3858 24.9229 76.0342 25.0996 76.6309 25.4529C77.2272 25.8065 77.7089 26.3641 78.0752 27.126C78.4418 27.8881 78.6249 28.8562 78.6249 30.0297C78.6249 31.2553 78.4158 32.3028 77.9974 33.1716C77.5791 34.0407 76.9939 34.6987 76.2417 35.1464C75.4895 35.5936 74.6204 35.8175 73.6349 35.8175C72.9213 35.8175 72.2176 35.6974 71.5239 35.4576V39.7957L69.1215 40V27.6855Z" fill="black"/>
<path d="M86.4006 33.0501C86.8903 32.392 87.1352 31.4304 87.1352 30.1659C87.1352 28.9924 86.9324 28.141 86.5272 27.6124C86.1217 27.084 85.5819 26.8197 84.9075 26.8197C84.4406 26.8197 84.0094 26.9302 83.6139 27.1505C83.2181 27.371 82.8421 27.6659 82.4855 28.0356V33.658C82.7255 33.7746 83.0041 33.8671 83.3222 33.9349C83.6396 34.0034 83.9542 34.0375 84.2655 34.0375C85.1992 34.0375 85.911 33.7081 86.4006 33.0501ZM80.0827 27.6855C80.0827 26.9074 80.0567 26.0512 80.0049 25.1176H82.2618C82.346 25.5521 82.4045 25.9964 82.4369 26.4501C83.3707 25.4322 84.4406 24.9229 85.6468 24.9229C86.3473 24.9229 86.9954 25.0996 87.5924 25.4529C88.1887 25.8065 88.6704 26.3641 89.037 27.126C89.403 27.8881 89.5864 28.8562 89.5864 30.0297C89.5864 31.2553 89.3769 32.3028 88.9589 33.1716C88.5406 34.0407 87.9551 34.6987 87.2033 35.1464C86.4508 35.5936 85.5819 35.8175 84.5961 35.8175C83.8828 35.8175 83.1792 35.6974 82.4855 35.4576V39.7957L80.0827 40V27.6855Z" fill="black"/>
<path d="M94 34.9468C92.9621 34.3732 92.1646 33.551 91.6072 32.481C91.049 31.411 90.7705 30.1464 90.7705 28.6874C90.7705 27.1053 91.0915 25.7611 91.7335 24.6553C92.3754 23.5499 93.2494 22.7198 94.3547 22.1653C95.4606 21.6109 96.7006 21.3336 98.0758 21.3336C98.8862 21.3336 99.6596 21.4228 100.396 21.6011C101.131 21.7795 101.817 22.0242 102.453 22.3356L101.84 24.1836C100.562 23.5741 99.3434 23.2692 98.1828 23.2692C97.2035 23.2692 96.3459 23.4785 95.6101 23.8968C94.8739 24.3151 94.3014 24.9295 93.893 25.7401C93.4843 26.5508 93.2802 27.5299 93.2802 28.6776C93.2802 29.683 93.4374 30.5745 93.7516 31.3526C94.0665 32.1308 94.5626 32.7471 95.2402 33.2008C95.9179 33.6548 96.7722 33.8816 97.8033 33.8816C98.2702 33.8816 98.7371 33.8428 99.204 33.765C99.6708 33.6873 100.109 33.5738 100.517 33.4245V30.5745H97.2587V28.7068H102.852V34.6406C102.048 35.0165 101.203 35.3054 100.318 35.5062C99.4324 35.707 98.5523 35.8076 97.6768 35.8076C96.263 35.8076 95.0372 35.521 94 34.9468Z" fill="black"/>
<path d="M109.95 33.6676C110.449 33.428 110.858 33.1294 111.176 32.7728V30.8274C110.521 30.7562 109.986 30.7204 109.571 30.7204C108.579 30.7204 107.893 30.8807 107.514 31.202C107.134 31.5225 106.944 31.9557 106.944 32.5003C106.944 33.0195 107.082 33.4035 107.358 33.6531C107.634 33.9028 108.008 34.0275 108.481 34.0275C108.961 34.0275 109.451 33.9077 109.95 33.6676ZM111.39 35.6131C111.305 35.2045 111.25 34.7411 111.224 34.2222C110.855 34.6634 110.373 35.0377 109.78 35.3458C109.187 35.6537 108.517 35.8076 107.771 35.8076C107.168 35.8076 106.619 35.6893 106.122 35.4525C105.627 35.216 105.232 34.8593 104.941 34.3825C104.649 33.906 104.503 33.3242 104.503 32.6365C104.503 31.6186 104.869 30.8063 105.602 30.1998C106.335 29.5936 107.557 29.2905 109.269 29.2905C109.911 29.2905 110.547 29.336 111.176 29.4266V29.2224C111.176 28.2951 110.978 27.6418 110.582 27.2622C110.187 26.8831 109.619 26.6934 108.88 26.6934C108.368 26.6934 107.82 26.768 107.236 26.917C106.653 27.0664 106.14 27.2446 105.699 27.4521L105.32 25.7012C105.748 25.5065 106.312 25.3283 107.012 25.1661C107.713 25.0042 108.452 24.9229 109.23 24.9229C110.138 24.9229 110.91 25.0607 111.545 25.3362C112.181 25.6119 112.677 26.0855 113.034 26.7564C113.39 27.4279 113.569 28.3309 113.569 29.4655V33.6383C113.569 34.0731 113.594 34.7316 113.646 35.6131H111.39Z" fill="black"/>
<path d="M115.412 33.0937V20.6916L117.805 20.4971V32.6657C117.805 33.1133 117.881 33.4292 118.033 33.6142C118.185 33.7987 118.427 33.8916 118.758 33.8916C118.907 33.8916 119.118 33.856 119.39 33.7846L119.672 35.5062C119.445 35.5971 119.168 35.67 118.841 35.725C118.513 35.7799 118.203 35.8076 117.912 35.8076C116.245 35.8076 115.412 34.9031 115.412 33.0937Z" fill="black"/>
<path d="M121.394 33.0937V20.6916L123.787 20.4971V32.6657C123.787 33.1133 123.863 33.4292 124.015 33.6142C124.168 33.7987 124.41 33.8916 124.74 33.8916C124.889 33.8916 125.1 33.856 125.372 33.7846L125.655 35.5062C125.427 35.5971 125.15 35.67 124.823 35.725C124.495 35.7799 124.186 35.8076 123.894 35.8076C122.227 35.8076 121.394 34.9031 121.394 33.0937Z" fill="black"/>
<path d="M133.153 29.1446C133.105 28.3081 132.896 27.6808 132.52 27.2622C132.144 26.8442 131.639 26.6349 131.013 26.6349C130.402 26.6349 129.895 26.8459 129.49 27.2672C129.085 27.6889 128.818 28.3146 128.696 29.1446H133.153ZM135.495 30.6717H128.629C128.738 32.8702 129.785 33.9693 131.771 33.9693C132.263 33.9693 132.767 33.9093 133.285 33.7894C133.799 33.6692 134.293 33.5089 134.766 33.3077L135.293 34.9516C134.117 35.5225 132.799 35.8076 131.334 35.8076C130.216 35.8076 129.278 35.5971 128.513 35.1755C127.745 34.754 127.17 34.1477 126.784 33.3563C126.399 32.5656 126.206 31.6122 126.206 30.4966C126.206 29.336 126.411 28.3372 126.82 27.5007C127.228 26.6641 127.796 26.0255 128.526 25.5845C129.255 25.1435 130.097 24.9229 131.051 24.9229C132.044 24.9229 132.87 25.1548 133.535 25.6186C134.2 26.082 134.692 26.6999 135.013 27.4714C135.334 28.2434 135.495 29.0959 135.495 30.0297V30.6717Z" fill="black"/>
<path d="M137.314 27.7536C137.314 27.1766 137.285 26.298 137.233 25.1176H139.483C139.521 25.4094 139.556 25.7579 139.595 26.1633C139.63 26.5685 139.653 26.8976 139.666 27.1505C139.945 26.6901 140.218 26.3026 140.488 25.9882C140.758 25.6734 141.073 25.4175 141.433 25.2195C141.793 25.0218 142.201 24.9229 142.664 24.9229C143.033 24.9229 143.348 24.9619 143.615 25.0397L143.313 27.1214C143.081 27.0501 142.821 27.0143 142.535 27.0143C141.973 27.0143 141.478 27.1586 141.057 27.4473C140.636 27.7356 140.186 28.2107 139.704 28.8721V35.6131H137.314V27.7536Z" fill="black"/>
<path d="M144.964 39.9075C144.614 39.8462 144.325 39.7764 144.1 39.6987L144.537 37.9478C144.697 37.9929 144.903 38.0368 145.151 38.0789C145.395 38.1214 145.629 38.1422 145.851 38.1422C146.915 38.1422 147.711 37.4578 148.242 36.0897L148.399 35.7006L144.527 25.1176H147.104L149.051 31.0316C149.366 32.0434 149.572 32.8184 149.662 33.3563C149.845 32.5977 150.057 31.839 150.304 31.0803L152.28 25.1176H154.7L150.841 35.7494C150.478 36.7544 150.083 37.5648 149.662 38.1811C149.241 38.797 148.743 39.2542 148.171 39.5527C147.596 39.8507 146.905 40 146.092 40C145.69 40 145.314 39.9695 144.964 39.9075Z" fill="black"/>
<path d="M54.5908 8.10058H58.8733L58.7528 9.13488H55.8459V11.1379H58.587V12.107H55.8459V14.326H58.9083L58.8029 15.3702H54.5908V8.10058Z" fill="black"/>
<path d="M61.8251 11.6601L59.566 8.10058H60.9917L62.523 10.7164L64.1347 8.10058H65.5202L63.281 11.6148L65.7059 15.3702H64.26L62.5282 12.5087L60.7658 15.3702H59.3803L61.8251 11.6601Z" fill="black"/>
<path d="M69.7776 11.3461C70.0453 11.1039 70.1792 10.7614 70.1792 10.3196C70.1792 9.871 70.0427 9.54841 69.7702 9.3508C69.4974 9.15319 69.0964 9.05455 68.5679 9.05455H67.8851V11.635C68.1996 11.6851 68.4406 11.7102 68.608 11.7102C69.1199 11.7102 69.5099 11.5891 69.7776 11.3461ZM66.6297 8.10058H68.5878C69.508 8.10058 70.2127 8.28823 70.7014 8.66287C71.1901 9.03785 71.4343 9.5799 71.4343 10.2894C71.4343 10.7713 71.3247 11.1926 71.1056 11.5521C70.8861 11.912 70.5809 12.1883 70.1892 12.3804C69.7978 12.5732 69.3473 12.6693 68.8387 12.6693C68.5611 12.6693 68.243 12.6359 67.8851 12.5687V15.3702H66.6297V8.10058Z" fill="black"/>
<path d="M72.6745 8.10058H73.9296V14.2958H76.9367L76.8313 15.3702H72.6745V8.10058Z" fill="black"/>
<path d="M82.098 14.1226C82.4495 13.8867 82.712 13.5622 82.8861 13.1487C83.0603 12.7355 83.1474 12.2625 83.1474 11.7304C83.1474 11.2083 83.0702 10.7434 82.9163 10.3346C82.7621 9.92626 82.5163 9.6011 82.1783 9.35818C81.8403 9.11559 81.4052 8.99414 80.8728 8.99414C80.3642 8.99414 79.9323 9.1172 79.5776 9.36332C79.2229 9.60913 78.9568 9.93911 78.7794 10.3523C78.6021 10.7658 78.5134 11.2218 78.5134 11.7205C78.5134 12.2458 78.5969 12.7162 78.7643 13.131C78.9314 13.5462 79.1875 13.8742 79.5326 14.1152C79.8771 14.3562 80.3037 14.4767 80.8127 14.4767C81.3181 14.4767 81.7464 14.3584 82.098 14.1226ZM78.8447 15.0139C78.3126 14.7093 77.9058 14.2816 77.6247 13.7309C77.3435 13.1805 77.2031 12.5405 77.2031 11.8108C77.2031 11.0444 77.3525 10.3742 77.6523 9.79999C77.9518 9.22613 78.3836 8.78271 78.9475 8.46944C79.5114 8.1568 80.1765 8 80.9432 8C81.6761 8 82.3071 8.15166 82.836 8.45433C83.3646 8.75765 83.7681 9.18339 84.0457 9.73219C84.3237 10.2813 84.4625 10.9172 84.4625 11.6401C84.4625 12.42 84.3112 13.0979 84.0082 13.6734C83.7052 14.2489 83.2737 14.6926 82.713 15.0036C82.1523 15.315 81.4939 15.4706 80.7375 15.4706C80.0078 15.4706 79.3768 15.3185 78.8447 15.0139Z" fill="black"/>
<path d="M87.8315 11.5396C88.1358 11.5396 88.4053 11.4805 88.6396 11.3612C88.8738 11.2427 89.0563 11.0753 89.1868 10.8594C89.3175 10.6434 89.3828 10.3931 89.3828 10.1088C89.3828 9.74409 89.2671 9.47708 89.0364 9.30807C88.8054 9.13906 88.469 9.05455 88.0272 9.05455H87.1185V11.5396H87.8315ZM85.8634 8.10058H88.1377C88.9676 8.10058 89.5961 8.26638 90.0228 8.59765C90.4495 8.92892 90.6629 9.40285 90.6629 10.0185C90.6629 10.4034 90.5858 10.7424 90.4318 11.0351C90.2779 11.3282 90.0871 11.5666 89.8596 11.7504C89.6318 11.9345 89.3979 12.0717 89.1569 12.1623L91.3909 15.3702H89.9351L88.0422 12.4884H87.1185V15.3702H85.8634V8.10058Z" fill="black"/>
<path d="M92.3851 8.10058H96.6675L96.547 9.13488H93.6401V11.1379H96.3812V12.107H93.6401V14.326H96.7025L96.5971 15.3702H92.3851V8.10058Z" fill="black"/>
<path d="M101.327 8.10058H102.582V15.3702H101.327V8.10058Z" fill="black"/>
<path d="M105.9 9.14998H103.646L103.756 8.10058H109.415L109.299 9.14998H107.155V15.3702H105.9V9.14998Z" fill="black"/>
<path d="M118.115 14.1226C118.466 13.8867 118.729 13.5622 118.903 13.1487C119.077 12.7355 119.164 12.2625 119.164 11.7304C119.164 11.2083 119.087 10.7434 118.933 10.3346C118.779 9.92626 118.533 9.6011 118.195 9.35818C117.857 9.11559 117.422 8.99414 116.89 8.99414C116.381 8.99414 115.949 9.1172 115.595 9.36332C115.24 9.60913 114.974 9.93911 114.797 10.3523C114.619 10.7658 114.53 11.2218 114.53 11.7205C114.53 12.2458 114.614 12.7162 114.781 13.131C114.949 13.5462 115.205 13.8742 115.549 14.1152C115.894 14.3562 116.321 14.4767 116.83 14.4767C117.335 14.4767 117.764 14.3584 118.115 14.1226ZM114.862 15.0139C114.329 14.7093 113.923 14.2816 113.642 13.7309C113.361 13.1805 113.22 12.5405 113.22 11.8108C113.22 11.0444 113.37 10.3742 113.669 9.79999C113.969 9.22613 114.4 8.78271 114.965 8.46944C115.529 8.1568 116.194 8 116.96 8C117.693 8 118.324 8.15166 118.853 8.45433C119.382 8.75765 119.785 9.18339 120.063 9.73219C120.34 10.2813 120.48 10.9172 120.48 11.6401C120.48 12.42 120.328 13.0979 120.025 13.6734C119.722 14.2489 119.29 14.6926 118.73 15.0036C118.169 15.315 117.511 15.4706 116.754 15.4706C116.025 15.4706 115.394 15.3185 114.862 15.0139Z" fill="black"/>
<path d="M121.88 8.10058H123.321L126.916 13.7335C126.884 13.1982 126.871 12.7043 126.871 12.2526V8.10058H128.035V15.3702H126.64L122.99 9.64673C123.027 10.2964 123.045 10.8719 123.045 11.3738V15.3702H121.88V8.10058Z" fill="black"/>
<path d="M28.317 26.6467H29.5412L28.9272 25.2188L28.317 26.6467Z" fill="#C91C2E"/>
<path fill-rule="evenodd" clip-rule="evenodd" d="M36.9366 8.94385H23.588C17.2999 8.94385 15 11.2438 15 17.5319V30.8807C15 37.1686 17.2999 39.4684 23.588 39.4684H36.9324C43.2205 39.4684 45.5246 37.1686 45.5246 30.8807V17.5319C45.5246 11.2438 43.2246 8.94385 36.9366 8.94385ZM28.0157 27.3665L27.6526 28.1974H26.8258L28.5841 24.2088H29.2983L31.0495 28.1974H30.2006L29.842 27.3665H28.0157ZM41.3189 28.1947H42.118V24.2088H41.3189V28.1947ZM38.1389 26.4819H39.6115V25.7556H38.1389V24.9385H40.2766V24.2113H37.3401V28.1971H40.3537V27.4701H38.1389V26.4819ZM34.964 26.953L34.0579 24.2087H33.3973L32.4912 26.953L31.6095 24.2106H30.7478L32.1387 28.1993H32.809L33.7164 25.5792L34.6234 28.1993H35.2998L36.6872 24.2106H35.8476L34.964 26.953ZM25.6061 26.493C25.6061 27.1419 25.2839 27.4885 24.6988 27.4885C24.1104 27.4885 23.7866 27.1321 23.7866 26.4654V24.211H22.9768V26.493C22.9768 27.6157 23.6005 28.2593 24.6878 28.2593C25.7858 28.2593 26.4155 27.6034 26.4155 26.46V24.2087H25.6061V26.493ZM21.0448 24.2088H21.8542V28.1996H21.0448V26.579H19.2162V28.1996H18.4065V24.2088H19.2162V25.8187H21.0448V24.2088ZM25.1814 14.0466C25.1814 16.8481 27.4608 19.1275 30.2623 19.1275C33.0638 19.1275 35.3432 16.8481 35.3432 14.0466H34.6254C34.6254 16.4524 32.6683 18.4098 30.2623 18.4098C27.8563 18.4098 25.8992 16.4524 25.8992 14.0466H25.1814Z" fill="#C91C2E"/>
</svg>