<svg width="141" height="38" viewBox="0 0 141 38" fill="none" xmlns="http://www.w3.org/2000/svg">
<path d="M22.2058 17.7313C22.1686 13.7121 25.5861 11.7567 25.7423 11.6657C23.8069 8.91838 20.807 8.54302 19.7529 8.51309C17.2333 8.25495 14.7894 9.98088 13.5059 9.98088C12.1968 9.98088 10.2204 8.53803 8.09028 8.58043C5.34916 8.62158 2.7848 10.1667 1.37837 12.566C-1.52415 17.4582 0.640572 24.6475 3.4214 28.602C4.81246 30.5386 6.43792 32.701 8.56549 32.625C10.647 32.5414 11.4245 31.333 13.9363 31.333C16.4251 31.333 17.1552 32.625 19.325 32.5763C21.5589 32.5414 22.9654 30.6309 24.3077 28.6768C25.9153 26.457 26.5608 24.2709 26.5865 24.1587C26.5339 24.1412 22.2481 22.5487 22.2058 17.7313Z" fill="#111111"/>
<path d="M18.1069 5.91172C19.2264 4.54869 19.9924 2.69431 19.7798 0.8125C18.1594 0.882335 16.133 1.90368 14.9661 3.23678C13.9337 4.41151 13.0115 6.33697 13.2497 8.1477C15.0699 8.27989 16.9387 7.25356 18.1069 5.91172Z" fill="#111111"/>
<path d="M52.3284 32.3459H49.4195L47.826 27.4711H42.2874L40.7696 32.3459H37.9375L43.4249 15.75H46.8141L52.3284 32.3459ZM47.3457 25.4259L45.9047 21.0924C45.7523 20.6497 45.4666 19.6072 45.0452 17.966H44.994C44.8262 18.6719 44.5559 19.7144 44.1844 21.0924L42.769 25.4259H47.3457V25.4259Z" fill="#111111"/>
<path d="M66.4403 26.2147C66.4403 28.2499 65.8754 29.8586 64.7457 31.0396C63.7338 32.0909 62.4772 32.6159 60.9773 32.6159C59.3582 32.6159 58.1952 32.0497 57.4868 30.9174H57.4356V37.2213H54.7047V24.3179C54.7047 23.0385 54.6701 21.7253 54.6035 20.3785H57.0052L57.1576 22.2753H57.2089C58.1196 20.8461 59.5017 20.1328 61.3564 20.1328C62.8064 20.1328 64.0168 20.6902 64.9852 21.8064C65.9561 22.9237 66.4403 24.3928 66.4403 26.2147ZM63.6582 26.312C63.6582 25.1472 63.3892 24.187 62.8487 23.4313C62.2582 22.6431 61.4653 22.2491 60.4713 22.2491C59.7976 22.2491 59.1853 22.4686 58.6383 22.9013C58.0901 23.3378 57.7315 23.9077 57.5637 24.6135C57.4791 24.9427 57.4369 25.2121 57.4369 25.4241V27.4194C57.4369 28.2898 57.711 29.0243 58.2592 29.6242C58.8074 30.224 59.5196 30.5233 60.3957 30.5233C61.4243 30.5233 62.2249 30.1367 62.7974 29.366C63.3713 28.5941 63.6582 27.5765 63.6582 26.312Z" fill="#111111"/>
<path d="M80.5777 26.2147C80.5777 28.2499 80.0128 29.8586 78.8818 31.0396C77.8712 32.0909 76.6146 32.6159 75.1147 32.6159C73.4956 32.6159 72.3325 32.0497 71.6255 30.9174H71.5743V37.2213H68.8434V24.3179C68.8434 23.0385 68.8088 21.7253 68.7422 20.3785H71.1439L71.2963 22.2753H71.3475C72.257 20.8461 73.6391 20.1328 75.4951 20.1328C76.9438 20.1328 78.1542 20.6902 79.1252 21.8064C80.0922 22.9237 80.5777 24.3928 80.5777 26.2147ZM77.7956 26.312C77.7956 25.1472 77.5253 24.187 76.9848 23.4313C76.3943 22.6431 75.604 22.2491 74.6087 22.2491C73.9337 22.2491 73.3227 22.4686 72.7745 22.9013C72.2262 23.3378 71.8689 23.9077 71.7011 24.6135C71.6178 24.9427 71.5743 25.2121 71.5743 25.4241V27.4194C71.5743 28.2898 71.8484 29.0243 72.394 29.6242C72.9423 30.2228 73.6544 30.5233 74.5331 30.5233C75.5617 30.5233 76.3623 30.1367 76.9348 29.366C77.5087 28.5941 77.7956 27.5765 77.7956 26.312Z" fill="#111111"/>
<path d="M96.3837 27.6928C96.3837 29.1045 95.8803 30.253 94.8697 31.1397C93.7591 32.1087 92.2131 32.5925 90.2264 32.5925C88.3922 32.5925 86.9217 32.2483 85.8086 31.5587L86.4414 29.3427C87.6403 30.0485 88.9558 30.4027 90.3891 30.4027C91.4177 30.4027 92.2182 30.1757 92.7933 29.7243C93.3659 29.2728 93.6515 28.6668 93.6515 27.9111C93.6515 27.2377 93.4158 26.6702 92.9432 26.2101C92.4731 25.7499 91.6879 25.3222 90.5915 24.9269C87.607 23.8432 86.116 22.2557 86.116 20.1681C86.116 18.8038 86.6386 17.6852 87.6851 16.8147C88.7278 15.943 90.1188 15.5078 91.8583 15.5078C93.4094 15.5078 94.698 15.7709 95.7266 16.296L95.0439 18.4633C94.0832 17.9545 92.997 17.7001 91.7814 17.7001C90.8208 17.7001 90.0702 17.9308 89.5322 18.3898C89.0775 18.8 88.8494 19.3001 88.8494 19.8925C88.8494 20.5484 89.1095 21.0909 89.6321 21.5174C90.0868 21.9115 90.913 22.338 92.1119 22.7981C93.5785 23.373 94.6558 24.0452 95.3487 24.8159C96.0391 25.584 96.3837 26.5455 96.3837 27.6928Z" fill="#111111"/>
<path d="M105.411 22.3754H102.401V28.1855C102.401 29.6633 102.932 30.4015 103.995 30.4015C104.483 30.4015 104.887 30.3604 105.208 30.2781L105.283 32.2971C104.745 32.4928 104.037 32.5914 103.16 32.5914C102.081 32.5914 101.238 32.2709 100.63 31.6311C100.024 30.9901 99.719 29.9152 99.719 28.405V22.373H97.9258V20.3777H99.719V18.1866L102.401 17.3984V20.3777H105.411V22.3754Z" fill="#111111"/>
<path d="M118.994 26.266C118.994 28.1054 118.454 29.6156 117.375 30.7966C116.244 32.0125 114.743 32.6185 112.872 32.6185C111.068 32.6185 109.632 32.0362 108.561 30.8714C107.49 29.7066 106.955 28.2364 106.955 26.4643C106.955 24.6099 107.506 23.091 108.611 21.91C109.714 20.7278 111.203 20.1367 113.074 20.1367C114.877 20.1367 116.329 20.7191 117.424 21.8851C118.472 23.0162 118.994 24.4765 118.994 26.266ZM116.161 26.3521C116.161 25.2484 115.919 24.3019 115.428 23.5125C114.856 22.5573 114.037 22.0809 112.977 22.0809C111.879 22.0809 111.045 22.5585 110.472 23.5125C109.982 24.3031 109.74 25.2646 109.74 26.4019C109.74 27.5056 109.982 28.4521 110.472 29.2402C111.063 30.1955 111.888 30.6719 112.952 30.6719C113.995 30.6719 114.813 30.1855 115.404 29.2153C115.907 28.411 116.161 27.4545 116.161 26.3521Z" fill="#111111"/>
<path d="M127.871 22.7167C127.601 22.6681 127.313 22.6431 127.01 22.6431C126.05 22.6431 125.307 22.9961 124.784 23.7031C124.329 24.3267 124.101 25.1148 124.101 26.0663V32.3453H121.372L121.397 24.1471C121.397 22.7678 121.363 21.5121 121.295 20.3797H123.674L123.773 22.6693H123.849C124.137 21.8824 124.592 21.2489 125.214 20.7738C125.823 20.3461 126.48 20.1328 127.188 20.1328C127.441 20.1328 127.669 20.1503 127.871 20.1814V22.7167Z" fill="#111111"/>
<path d="M140.084 25.7986C140.084 26.275 140.052 26.6765 139.984 27.0045H131.791C131.823 28.1867 132.219 29.0909 132.98 29.7144C133.67 30.2718 134.563 30.5512 135.659 30.5512C136.872 30.5512 137.979 30.3629 138.974 29.985L139.402 31.8306C138.239 32.3245 136.866 32.5701 135.282 32.5701C133.376 32.5701 131.88 32.0239 130.791 30.9328C129.705 29.8416 129.16 28.3763 129.16 26.5381C129.16 24.7336 129.666 23.2309 130.679 22.0325C131.74 20.753 133.173 20.1133 134.977 20.1133C136.748 20.1133 138.089 20.753 139 22.0325C139.721 23.0489 140.084 24.3059 140.084 25.7986ZM137.48 25.109C137.498 24.3209 137.319 23.64 136.949 23.0651C136.477 22.3256 135.75 21.9564 134.773 21.9564C133.88 21.9564 133.154 22.3168 132.599 23.0401C132.145 23.615 131.874 24.3046 131.791 25.1078H137.48V25.109Z" fill="#111111"/>
<path d="M46.4422 5.54601C46.4422 7.0138 45.99 8.11869 45.087 8.86069C44.2505 9.54533 43.0619 9.88827 41.5222 9.88827C40.7588 9.88827 40.1055 9.85585 39.5586 9.791V1.77116C40.2721 1.65893 41.0406 1.60156 41.8706 1.60156C43.3372 1.60156 44.4427 1.91208 45.1881 2.53312C46.0233 3.23521 46.4422 4.23909 46.4422 5.54601ZM45.0268 5.58217C45.0268 4.63067 44.768 3.90114 44.2505 3.39234C43.733 2.88479 42.9773 2.63039 41.9821 2.63039C41.5594 2.63039 41.1994 2.65782 40.901 2.71519V8.81206C41.0662 8.837 41.3685 8.84822 41.8079 8.84822C42.8351 8.84822 43.628 8.57013 44.1865 8.01394C44.745 7.45775 45.0268 6.64716 45.0268 5.58217Z" fill="#111111"/>
<path d="M53.9471 6.82681C53.9471 7.73092 53.682 8.47168 53.1517 9.0528C52.5958 9.65015 51.8593 9.94819 50.9396 9.94819C50.0532 9.94819 49.3474 9.66262 48.821 9.08897C48.2958 8.51657 48.0332 7.79452 48.0332 6.92408C48.0332 6.01372 48.3035 5.26674 48.8466 4.68685C49.3897 4.10697 50.1198 3.81641 51.0395 3.81641C51.9259 3.81641 52.638 4.10198 53.1773 4.67438C53.6897 5.23057 53.9471 5.94888 53.9471 6.82681ZM52.5548 6.86921C52.5548 6.32674 52.4344 5.86158 52.1948 5.47375C51.913 5.00485 51.5121 4.77041 50.9908 4.77041C50.4515 4.77041 50.0417 5.00485 49.7599 5.47375C49.519 5.86158 49.3999 6.33422 49.3999 6.8929C49.3999 7.43537 49.5203 7.90052 49.7599 8.28836C50.0506 8.75725 50.4554 8.9917 50.978 8.9917C51.4904 8.9917 51.8926 8.75351 52.182 8.27589C52.4305 7.88057 52.5548 7.41168 52.5548 6.86921Z" fill="#111111"/>
<path d="M64.0103 3.9375L62.1209 9.81614H60.8913L60.1086 7.26341C59.9101 6.62616 59.7487 5.99265 59.6232 5.36414H59.5988C59.4823 6.01011 59.3209 6.64237 59.1134 7.26341L58.2821 9.81614H57.0383L55.2617 3.9375H56.6412L57.324 6.73216C57.4892 7.3931 57.625 8.02286 57.7339 8.61896H57.7582C57.8581 8.12762 58.0233 7.50159 58.2565 6.74463L59.1134 3.93875H60.2073L61.0283 6.68477C61.2269 7.35444 61.3883 7.99917 61.5125 8.62021H61.5496C61.6406 8.01538 61.7776 7.37065 61.9595 6.68477L62.6922 3.93875H64.0103V3.9375Z" fill="#111111"/>
<path d="M70.9684 9.8146H69.6261V6.44754C69.6261 5.40998 69.2213 4.89121 68.4092 4.89121C68.0108 4.89121 67.6893 5.03337 67.4396 5.31895C67.1924 5.60452 67.0668 5.94123 67.0668 6.32657V9.81335H65.7244V5.61575C65.7244 5.09947 65.7078 4.53954 65.6758 3.93346H66.8555L66.9183 4.85255H66.9554C67.1117 4.56697 67.3448 4.33128 67.6509 4.14297C68.0147 3.92349 68.422 3.8125 68.8678 3.8125C69.4314 3.8125 69.9002 3.98958 70.2729 4.34499C70.7366 4.78022 70.9684 5.42994 70.9684 6.2929V9.8146V9.8146Z" fill="#111111"/>
<path d="M74.6683 9.8143H73.3281V1.23828H74.6683V9.8143Z" fill="#111111"/>
<path d="M82.5741 6.82681C82.5741 7.73092 82.3089 8.47168 81.7786 9.0528C81.2227 9.65015 80.4849 9.94819 79.5665 9.94819C78.6789 9.94819 77.9731 9.66262 77.4479 9.08897C76.9227 8.51657 76.6602 7.79452 76.6602 6.92408C76.6602 6.01372 76.9304 5.26674 77.4735 4.68685C78.0166 4.10697 78.7467 3.81641 79.6651 3.81641C80.5528 3.81641 81.2637 4.10198 81.8042 4.67438C82.3166 5.23057 82.5741 5.94888 82.5741 6.82681ZM81.1804 6.86921C81.1804 6.32674 81.06 5.86158 80.8205 5.47375C80.54 5.00485 80.1378 4.77041 79.6177 4.77041C79.0772 4.77041 78.6673 5.00485 78.3868 5.47375C78.146 5.86158 78.0269 6.33422 78.0269 6.8929C78.0269 7.43537 78.1473 7.90052 78.3868 8.28836C78.6776 8.75725 79.0823 8.9917 79.6049 8.9917C80.1173 8.9917 80.5182 8.75351 80.8077 8.27589C81.0575 7.88057 81.1804 7.41168 81.1804 6.86921Z" fill="#111111"/>
<path d="M89.0704 9.81476H87.865L87.7651 9.13761H87.728C87.3155 9.67758 86.7276 9.94819 85.9642 9.94819C85.3942 9.94819 84.9331 9.76986 84.5859 9.4157C84.2708 9.09396 84.1133 8.69365 84.1133 8.21852C84.1133 7.50022 84.4207 6.95276 85.0394 6.57365C85.6568 6.19455 86.5252 6.00873 87.6434 6.01746V5.90772C87.6434 5.1333 87.2259 4.74671 86.3894 4.74671C85.7938 4.74671 85.2687 4.89262 84.8152 5.18194L84.5424 4.32396C85.1034 3.98601 85.7964 3.81641 86.6136 3.81641C88.1917 3.81641 88.9833 4.62699 88.9833 6.24817V8.41306C88.9833 9.00043 89.0127 9.46808 89.0704 9.81476ZM87.6767 7.79452V6.88791C86.196 6.86297 85.4557 7.25829 85.4557 8.07262C85.4557 8.37939 85.5402 8.60885 85.7131 8.76224C85.886 8.91563 86.1064 8.9917 86.3689 8.9917C86.6635 8.9917 86.9389 8.90066 87.19 8.71984C87.4423 8.53777 87.5973 8.30706 87.655 8.02398C87.6691 7.96038 87.6767 7.88306 87.6767 7.79452Z" fill="#111111"/>
<path d="M96.6976 9.81431H95.5064L95.4436 8.87028H95.4065C95.0261 9.58859 94.3779 9.94774 93.4672 9.94774C92.7397 9.94774 92.1338 9.66965 91.6535 9.11346C91.1731 8.55727 90.9336 7.83522 90.9336 6.94856C90.9336 5.99706 91.1936 5.22638 91.7162 4.63776C92.2222 4.08906 92.8421 3.8147 93.5799 3.8147C94.3907 3.8147 94.9582 4.08033 95.281 4.61282H95.3066V1.23828H96.6502V8.23054C96.6502 8.80294 96.6656 9.33045 96.6976 9.81431ZM95.3066 7.33515V6.35496C95.3066 6.18536 95.2938 6.04819 95.2694 5.94344C95.1939 5.62918 95.0312 5.3648 94.784 5.15155C94.5342 4.93831 94.2332 4.83106 93.8861 4.83106C93.3852 4.83106 92.9933 5.02435 92.7051 5.41219C92.4194 5.80002 92.2747 6.2951 92.2747 6.89993C92.2747 7.48106 92.4117 7.95245 92.6871 8.31534C92.9779 8.70193 93.3699 8.89522 93.8604 8.89522C94.3011 8.89522 94.6533 8.73435 94.921 8.41136C95.1798 8.11332 95.3066 7.75416 95.3066 7.33515Z" fill="#111111"/>
<path d="M108.18 6.82681C108.18 7.73092 107.914 8.47168 107.384 9.0528C106.828 9.65015 106.093 9.94819 105.172 9.94819C104.287 9.94819 103.581 9.66262 103.053 9.08897C102.528 8.51657 102.266 7.79452 102.266 6.92408C102.266 6.01372 102.536 5.26674 103.079 4.68685C103.622 4.10697 104.352 3.81641 105.273 3.81641C106.158 3.81641 106.872 4.10198 107.41 4.67438C107.922 5.23057 108.18 5.94888 108.18 6.82681ZM106.788 6.86921C106.788 6.32674 106.668 5.86158 106.429 5.47375C106.145 5.00485 105.746 4.77041 105.223 4.77041C104.685 4.77041 104.275 5.00485 103.992 5.47375C103.751 5.86158 103.632 6.33422 103.632 6.8929C103.632 7.43537 103.753 7.90052 103.992 8.28836C104.283 8.75725 104.688 8.9917 105.21 8.9917C105.723 8.9917 106.126 8.75351 106.416 8.27589C106.663 7.88057 106.788 7.41168 106.788 6.86921Z" fill="#111111"/>
<path d="M115.397 9.8146H114.056V6.44754C114.056 5.40998 113.651 4.89121 112.838 4.89121C112.439 4.89121 112.118 5.03337 111.869 5.31895C111.621 5.60452 111.497 5.94123 111.497 6.32657V9.81335H110.153V5.61575C110.153 5.09947 110.137 4.53954 110.105 3.93346H111.284L111.347 4.85255H111.384C111.541 4.56697 111.774 4.33128 112.079 4.14297C112.444 3.92349 112.85 3.8125 113.297 3.8125C113.86 3.8125 114.329 3.98958 114.701 4.34499C115.166 4.78022 115.397 5.42994 115.397 6.2929V9.8146V9.8146Z" fill="#111111"/>
<path d="M124.431 4.91564H122.953V7.77141C122.953 8.4972 123.216 8.86009 123.736 8.86009C123.977 8.86009 124.176 8.84014 124.334 8.79899L124.369 9.7904C124.103 9.88767 123.755 9.9363 123.326 9.9363C122.796 9.9363 122.383 9.77917 122.085 9.46492C121.785 9.15066 121.636 8.6219 121.636 7.8799V4.91564H120.754V3.9367H121.636V2.85924L122.952 2.47266V3.93546H124.43V4.91564H124.431Z" fill="#111111"/>
<path d="M131.537 9.8143H130.193V6.47219C130.193 5.41842 129.789 4.89092 128.978 4.89092C128.355 4.89092 127.93 5.19645 127.697 5.8075C127.657 5.93595 127.634 6.09308 127.634 6.27765V9.81306H126.293V1.23828H127.634V4.78118H127.66C128.082 4.13645 128.688 3.8147 129.473 3.8147C130.029 3.8147 130.489 3.99179 130.854 4.3472C131.309 4.7899 131.537 5.44835 131.537 6.3188V9.8143V9.8143Z" fill="#111111"/>
<path d="M138.868 6.59685C138.868 6.8313 138.85 7.02833 138.818 7.1892H134.792C134.81 7.77033 135.002 8.21304 135.375 8.51982C135.716 8.79417 136.155 8.93135 136.693 8.93135C137.289 8.93135 137.832 8.83906 138.321 8.65325L138.531 9.56111C137.959 9.80304 137.285 9.924 136.505 9.924C135.57 9.924 134.833 9.65589 134.301 9.11965C133.765 8.58342 133.5 7.86386 133.5 6.96099C133.5 6.07433 133.747 5.33608 134.245 4.74746C134.766 4.11895 135.469 3.80469 136.356 3.80469C137.225 3.80469 137.885 4.11895 138.33 4.74746C138.69 5.24629 138.868 5.86358 138.868 6.59685ZM137.587 6.2589C137.598 5.87106 137.509 5.53685 137.327 5.25502C137.094 4.89212 136.739 4.71005 136.259 4.71005C135.821 4.71005 135.464 4.88713 135.191 5.24255C134.968 5.52563 134.836 5.86358 134.792 6.2589H137.587Z" fill="#111111"/>
</svg>
