<svg width="150" height="33" viewBox="0 0 150 33" fill="none" xmlns="http://www.w3.org/2000/svg">
<path d="M48.4416 4.4119C48.4416 5.41341 48.1182 6.21552 47.481 6.81372C46.7485 7.52288 45.7945 7.8797 44.6254 7.8797C43.508 7.8797 42.5539 7.51688 41.7713 6.80173C40.987 6.07608 40.5957 5.18552 40.5957 4.11954C40.5957 3.05356 40.987 2.16299 41.7713 1.44335C42.5539 0.722199 43.508 0.359375 44.6254 0.359375C45.1816 0.359375 45.712 0.465823 46.2181 0.663726C46.7226 0.863129 47.1334 1.133 47.4309 1.46583L46.755 2.09853C46.2359 1.5303 45.5293 1.24994 44.6254 1.24994C43.8104 1.24994 43.1037 1.51381 42.5038 2.04605C41.9104 2.57979 41.6128 3.27095 41.6128 4.11954C41.6128 4.96812 41.9104 5.66528 42.5038 6.19902C43.1037 6.72526 43.8104 6.99513 44.6254 6.99513C45.4905 6.99513 46.2181 6.72527 46.7922 6.19303C47.1706 5.8407 47.3856 5.35494 47.4422 4.73424H44.6254V3.86766H48.3833C48.4286 4.05507 48.4416 4.23648 48.4416 4.4119V4.4119Z" fill="#111111" stroke="white" stroke-width="0.16" stroke-miterlimit="10"/>
<path d="M54.4043 1.41041H50.8743V3.6893H54.0567V4.55587H50.8743V6.83476H54.4043V7.71783H49.875V0.527344H54.4043V1.41041Z" fill="#111111" stroke="white" stroke-width="0.16" stroke-miterlimit="10"/>
<path d="M58.6118 7.71783H57.6125V1.41041H55.4473V0.527344H60.7786V1.41041H58.6118V7.71783V7.71783Z" fill="#111111" stroke="white" stroke-width="0.16" stroke-miterlimit="10"/>
<path d="M64.6367 7.71783V0.527344H65.6337V7.71783H64.6367Z" fill="#111111" stroke="white" stroke-width="0.16" stroke-miterlimit="10"/>
<path d="M70.0571 7.71783H69.0659V1.41041H66.8926V0.527344H72.2304V1.41041H70.0571V7.71783Z" fill="#111111" stroke="white" stroke-width="0.16" stroke-miterlimit="10"/>
<path d="M82.3235 6.78973C81.5586 7.51688 80.611 7.8797 79.4807 7.8797C78.344 7.8797 77.3964 7.51688 76.6315 6.78973C75.8683 6.06409 75.4883 5.17352 75.4883 4.11954C75.4883 3.06555 75.8683 2.17499 76.6315 1.44934C77.3964 0.722198 78.344 0.359375 79.4807 0.359375C80.6046 0.359375 81.5522 0.722198 82.317 1.45534C83.0867 2.18698 83.4667 3.07155 83.4667 4.11954C83.4667 5.17352 83.0867 6.06409 82.3235 6.78973ZM77.3705 6.18703C77.9462 6.72527 78.6463 6.99513 79.4807 6.99513C80.3087 6.99513 81.0153 6.72527 81.5845 6.18703C82.1586 5.64879 82.4496 4.95763 82.4496 4.11954C82.4496 3.28145 82.1586 2.59029 81.5845 2.05205C81.0153 1.51381 80.3087 1.24394 79.4807 1.24394C78.6463 1.24394 77.9462 1.51381 77.3705 2.05205C76.7965 2.59029 76.5054 3.28145 76.5054 4.11954C76.5054 4.95763 76.7965 5.64879 77.3705 6.18703V6.18703Z" fill="#111111" stroke="white" stroke-width="0.16" stroke-miterlimit="10"/>
<path d="M84.8672 7.71783V0.527344H86.08L89.8509 6.11961H89.8946L89.8509 4.73729V0.527344H90.8486V7.71783H89.8072L85.8584 1.8497H85.8148L85.8584 3.23802V7.71783H84.8672V7.71783Z" fill="#111111" stroke="white" stroke-width="0.16" stroke-miterlimit="10"/>
<path d="M75.2422 18.2172C72.2038 18.2172 69.7217 20.3612 69.7217 23.3192C69.7217 26.2533 72.2038 28.4197 75.2422 28.4197C78.2871 28.4197 80.7693 26.2533 80.7693 23.3192C80.7693 20.3612 78.2871 18.2172 75.2422 18.2172ZM75.2422 26.4107C73.5751 26.4107 72.1408 25.1348 72.1408 23.3192C72.1408 21.4796 73.5751 20.2262 75.2422 20.2262C76.9094 20.2262 78.3502 21.4796 78.3502 23.3192C78.3502 25.1348 76.9094 26.4107 75.2422 26.4107V26.4107ZM63.197 18.2172C60.1521 18.2172 57.6764 20.3612 57.6764 23.3192C57.6764 26.2533 60.1521 28.4197 63.197 28.4197C66.2402 28.4197 68.7175 26.2533 68.7175 23.3192C68.7175 20.3612 66.2402 18.2172 63.197 18.2172ZM63.197 26.4107C61.5282 26.4107 60.089 25.1348 60.089 23.3192C60.089 21.4796 61.5282 20.2262 63.197 20.2262C64.8641 20.2262 66.2984 21.4796 66.2984 23.3192C66.2984 25.1348 64.8641 26.4107 63.197 26.4107ZM48.8636 19.781V21.9489H54.4472C54.2839 23.1603 53.8473 24.0509 53.1778 24.6716C52.3628 25.4212 51.0935 26.2533 48.8636 26.2533C45.4274 26.2533 42.7366 23.6821 42.7366 20.4961C42.7366 17.3102 45.4274 14.7389 48.8636 14.7389C50.7215 14.7389 52.0734 15.4121 53.0711 16.2847L54.7188 14.7569C53.3233 13.5215 51.467 12.5725 48.8636 12.5725C44.1515 12.5725 40.1914 16.1272 40.1914 20.4961C40.1914 24.865 44.1515 28.4197 48.8636 28.4197C51.4104 28.4197 53.3233 27.6461 54.8272 26.1948C56.3682 24.766 56.8485 22.757 56.8485 21.1348C56.8485 20.631 56.8032 20.1678 56.7223 19.781H48.8636ZM107.475 21.4616C107.02 20.3207 105.618 18.2172 102.763 18.2172C99.9327 18.2172 97.5767 20.2847 97.5767 23.3192C97.5767 26.1768 99.9085 28.4197 103.034 28.4197C105.562 28.4197 107.02 26.9909 107.62 26.1588L105.744 24.9999C105.119 25.8485 104.266 26.4107 103.034 26.4107C101.81 26.4107 100.932 25.8905 100.369 24.865L107.728 22.0419L107.475 21.4616V21.4616ZM99.9716 23.1603C99.9085 21.1933 101.619 20.1858 102.845 20.1858C103.806 20.1858 104.621 20.631 104.892 21.2682L99.9716 23.1603V23.1603ZM93.9901 28.1094H96.4092V13.1167H93.9901V28.1094ZM90.0284 19.3537H89.9476C89.4042 18.757 88.3677 18.2172 87.0547 18.2172C84.2993 18.2172 81.7799 20.4601 81.7799 23.3357C81.7799 26.1948 84.2993 28.4197 87.0547 28.4197C88.3677 28.4197 89.4042 27.8755 89.9476 27.2608H90.0284V27.9924C90.0284 29.943 88.9046 30.991 87.0919 30.991C85.6139 30.991 84.697 30.0015 84.3187 29.1694L82.2149 29.9835C82.8213 31.3358 84.427 33 87.0919 33C89.9281 33 92.3214 31.4528 92.3214 27.6881V18.5276H90.0284V19.3537V19.3537ZM87.2617 26.4107C85.5945 26.4107 84.199 25.1169 84.199 23.3357C84.199 21.5381 85.5945 20.2262 87.2617 20.2262C88.9046 20.2262 90.1998 21.5381 90.1998 23.3357C90.1998 25.1169 88.9046 26.4107 87.2617 26.4107V26.4107ZM118.8 13.1167H113.015V28.1094H115.427V22.4287H118.8C121.48 22.4287 124.107 20.631 124.107 17.7719C124.107 14.9143 121.473 13.1167 118.8 13.1167V13.1167ZM118.863 20.3432H115.427V15.2022H118.863C120.665 15.2022 121.693 16.589 121.693 17.7719C121.693 18.9324 120.665 20.3432 118.863 20.3432ZM133.777 18.1887C132.034 18.1887 130.221 18.9024 129.476 20.4841L131.617 21.3162C132.078 20.4841 132.925 20.2142 133.821 20.2142C135.073 20.2142 136.342 20.9114 136.361 22.1423V22.2997C135.925 22.0658 134.99 21.7195 133.84 21.7195C131.534 21.7195 129.185 22.8964 129.185 25.0929C129.185 27.1019 131.074 28.3957 133.197 28.3957C134.82 28.3957 135.716 27.7166 136.279 26.9265H136.361V28.0854H138.691V22.3342C138.691 19.676 136.55 18.1887 133.777 18.1887ZM133.486 26.4047C132.697 26.4047 131.598 26.0419 131.598 25.1348C131.598 23.9744 132.969 23.5291 134.156 23.5291C135.218 23.5291 135.716 23.7465 136.361 24.0329C136.172 25.4212 134.883 26.4047 133.486 26.4047V26.4047ZM147.181 18.5171L144.408 25.0164H144.325L141.458 18.5171H138.856L143.164 27.5996L140.706 32.6537H143.227L149.865 18.5171H147.181V18.5171ZM125.433 28.1094H127.852V13.1167H125.433V28.1094Z" fill="#111111"/>
<path d="M0.599919 1.16907C0.219916 1.53789 0 2.11211 0 2.85575V29.3808C0 30.1244 0.219916 30.6987 0.599919 31.0675L0.693707 31.1484L16.725 16.2907V15.9399L0.693707 1.08212L0.599919 1.16907Z" fill="url(#paint0_linear_101_805)"/>
<path d="M22.0624 21.2461L16.7246 16.291V15.9402L22.0689 10.9851L22.1886 11.0496L28.5176 14.3884C30.3239 15.336 30.3239 16.8952 28.5176 17.8488L22.1886 21.1816L22.0624 21.2461V21.2461Z" fill="url(#paint1_linear_101_805)"/>
<path d="M22.1886 21.1814L16.7247 16.1154L0.599609 31.0676C1.19953 31.6523 2.17783 31.7228 3.29035 31.1381L22.1886 21.1814" fill="url(#paint2_linear_101_805)"/>
<path d="M22.1886 11.0512L3.29035 1.09453C2.17783 0.515809 1.19953 0.586273 0.599609 1.17099L16.7247 16.1172L22.1886 11.0512Z" fill="url(#paint3_linear_101_805)"/>
<defs>
<linearGradient id="paint0_linear_101_805" x1="15.3016" y1="29.657" x2="-4.77004" y2="8.00877" gradientUnits="userSpaceOnUse">
<stop stop-color="#00A0FF"/>
<stop offset="0.0066" stop-color="#00A1FF"/>
<stop offset="0.2601" stop-color="#00BEFF"/>
<stop offset="0.5122" stop-color="#00D2FF"/>
<stop offset="0.7604" stop-color="#00DFFF"/>
<stop offset="1" stop-color="#00E3FF"/>
</linearGradient>
<linearGradient id="paint1_linear_101_805" x1="30.8697" y1="16.1139" x2="-0.432128" y2="16.1139" gradientUnits="userSpaceOnUse">
<stop stop-color="#FFE000"/>
<stop offset="0.4087" stop-color="#FFBD00"/>
<stop offset="0.7754" stop-color="#FFA500"/>
<stop offset="1" stop-color="#FF9C00"/>
</linearGradient>
<linearGradient id="paint2_linear_101_805" x1="19.2175" y1="13.3614" x2="-8.00127" y2="-15.9954" gradientUnits="userSpaceOnUse">
<stop stop-color="#FF3A44"/>
<stop offset="1" stop-color="#C31162"/>
</linearGradient>
<linearGradient id="paint3_linear_101_805" x1="-3.45941" y1="39.8941" x2="8.695" y2="26.7851" gradientUnits="userSpaceOnUse">
<stop stop-color="#32A071"/>
<stop offset="0.0685" stop-color="#2DA771"/>
<stop offset="0.4762" stop-color="#15CF74"/>
<stop offset="0.8009" stop-color="#06E775"/>
<stop offset="1" stop-color="#00F076"/>
</linearGradient>
</defs>
</svg>
