<svg width="16" height="16" viewBox="0 0 16 16" fill="none" xmlns="http://www.w3.org/2000/svg">
<path d="M8.70711 15.1117C8.31659 15.5022 7.68342 15.5022 7.2929 15.1117L3.75734 11.5761C2.91823 10.737 2.34679 9.66789 2.11529 8.50401C1.88378 7.34013 2.0026 6.13373 2.45673 5.03738C2.91086 3.94103 3.6799 3.00396 4.66659 2.34467C5.65328 1.68539 6.81332 1.3335 8 1.3335C9.18669 1.3335 10.3467 1.68539 11.3334 2.34467C12.3201 3.00396 13.0891 3.94103 13.5433 5.03738C13.9974 6.13373 14.1162 7.34013 13.8847 8.50401C13.6532 9.66789 13.0818 10.737 12.2427 11.5761L8.70711 15.1117ZM11.3 10.6334C11.9526 9.98078 12.397 9.14926 12.577 8.24403C12.7571 7.3388 12.6646 6.40051 12.3114 5.54781C11.9582 4.69512 11.36 3.96632 10.5926 3.45356C9.82519 2.9408 8.92296 2.66711 8 2.66711C7.07704 2.66711 6.17481 2.9408 5.40739 3.45356C4.63997 3.96632 4.04183 4.69512 3.68861 5.54781C3.33539 6.40051 3.24294 7.3388 3.42297 8.24403C3.603 9.14926 4.04741 9.98078 4.7 10.6334L8 13.9334L11.3 10.6334ZM8 8.66678C7.64638 8.66678 7.30724 8.5263 7.05719 8.27625C6.80715 8.0262 6.66667 7.68707 6.66667 7.33344C6.66667 6.97982 6.80715 6.64068 7.05719 6.39064C7.30724 6.14059 7.64638 6.00011 8 6.00011C8.35362 6.00011 8.69276 6.14059 8.94281 6.39064C9.19286 6.64068 9.33334 6.97982 9.33334 7.33344C9.33334 7.68707 9.19286 8.0262 8.94281 8.27625C8.69276 8.5263 8.35362 8.66678 8 8.66678Z" fill="#DA002B"/>
</svg>
